<mxfile host="app.diagrams.net" agent="Mozilla/5.0 (Windows NT 10.0; Win64; x64) AppleWebKit/537.36 (KHTML, like Gecko) Chrome/131.0.0.0 Safari/537.36" version="25.0.3">
  <diagram name="HamburgerFactory" id="xpUepwR4EpYtKI3WOdSG">
    <mxGraphModel dx="3474" dy="1540" grid="1" gridSize="10" guides="1" tooltips="1" connect="1" arrows="1" fold="1" page="1" pageScale="1" pageWidth="827" pageHeight="1169" math="0" shadow="0">
      <root>
        <mxCell id="0" />
        <mxCell id="1" parent="0" />
        <mxCell id="UKAKQ2mue9kuKJpfNpfK-1" value="" style="rounded=0;whiteSpace=wrap;html=1;" vertex="1" parent="1">
          <mxGeometry x="-240" y="140" width="1350" height="660" as="geometry" />
        </mxCell>
        <mxCell id="gtxU_MYMPbrc9Mod0aXV-26" value="" style="group;backgroundOutline=1;" parent="1" vertex="1" connectable="0">
          <mxGeometry x="630" y="570" width="150" height="80" as="geometry" />
        </mxCell>
        <mxCell id="gtxU_MYMPbrc9Mod0aXV-22" value="" style="rounded=0;whiteSpace=wrap;html=1;backgroundOutline=1;" parent="gtxU_MYMPbrc9Mod0aXV-26" vertex="1">
          <mxGeometry width="150" height="70" as="geometry" />
        </mxCell>
        <mxCell id="gtxU_MYMPbrc9Mod0aXV-23" value="" style="endArrow=none;html=1;rounded=0;exitX=0;exitY=0.25;exitDx=0;exitDy=0;entryX=1;entryY=0.25;entryDx=0;entryDy=0;backgroundOutline=1;" parent="gtxU_MYMPbrc9Mod0aXV-26" source="gtxU_MYMPbrc9Mod0aXV-22" target="gtxU_MYMPbrc9Mod0aXV-22" edge="1">
          <mxGeometry width="50" height="50" relative="1" as="geometry">
            <mxPoint x="50" y="90" as="sourcePoint" />
            <mxPoint x="100" y="40" as="targetPoint" />
          </mxGeometry>
        </mxCell>
        <mxCell id="gtxU_MYMPbrc9Mod0aXV-24" value="&lt;u&gt;PortugueseVeggieBurger&lt;/u&gt;" style="text;html=1;align=center;verticalAlign=middle;whiteSpace=wrap;rounded=0;backgroundOutline=1;" parent="gtxU_MYMPbrc9Mod0aXV-26" vertex="1">
          <mxGeometry x="5" width="140" height="20" as="geometry" />
        </mxCell>
        <mxCell id="gtxU_MYMPbrc9Mod0aXV-27" value="" style="group;backgroundOutline=1;" parent="1" vertex="1" connectable="0">
          <mxGeometry x="460" y="570" width="160" height="70" as="geometry" />
        </mxCell>
        <mxCell id="gtxU_MYMPbrc9Mod0aXV-18" value="" style="rounded=0;whiteSpace=wrap;html=1;backgroundOutline=1;" parent="gtxU_MYMPbrc9Mod0aXV-27" vertex="1">
          <mxGeometry width="160" height="70" as="geometry" />
        </mxCell>
        <mxCell id="gtxU_MYMPbrc9Mod0aXV-19" value="" style="endArrow=none;html=1;rounded=0;exitX=0;exitY=0.25;exitDx=0;exitDy=0;entryX=1;entryY=0.25;entryDx=0;entryDy=0;backgroundOutline=1;" parent="gtxU_MYMPbrc9Mod0aXV-27" source="gtxU_MYMPbrc9Mod0aXV-18" target="gtxU_MYMPbrc9Mod0aXV-18" edge="1">
          <mxGeometry width="50" height="50" relative="1" as="geometry">
            <mxPoint x="50" y="78.75" as="sourcePoint" />
            <mxPoint x="100" y="35" as="targetPoint" />
          </mxGeometry>
        </mxCell>
        <mxCell id="gtxU_MYMPbrc9Mod0aXV-20" value="&lt;u&gt;PortugueseMeatLoverBurger&lt;/u&gt;" style="text;html=1;align=center;verticalAlign=middle;whiteSpace=wrap;rounded=0;backgroundOutline=1;" parent="gtxU_MYMPbrc9Mod0aXV-27" vertex="1">
          <mxGeometry x="7.5" width="145" height="17.5" as="geometry" />
        </mxCell>
        <mxCell id="gtxU_MYMPbrc9Mod0aXV-28" value="" style="group;backgroundOutline=1;" parent="1" vertex="1" connectable="0">
          <mxGeometry x="300" y="570" width="150" height="80" as="geometry" />
        </mxCell>
        <mxCell id="gtxU_MYMPbrc9Mod0aXV-14" value="" style="rounded=0;whiteSpace=wrap;html=1;backgroundOutline=1;" parent="gtxU_MYMPbrc9Mod0aXV-28" vertex="1">
          <mxGeometry width="150" height="70" as="geometry" />
        </mxCell>
        <mxCell id="gtxU_MYMPbrc9Mod0aXV-15" value="" style="endArrow=none;html=1;rounded=0;exitX=0;exitY=0.25;exitDx=0;exitDy=0;entryX=1;entryY=0.25;entryDx=0;entryDy=0;backgroundOutline=1;" parent="gtxU_MYMPbrc9Mod0aXV-28" source="gtxU_MYMPbrc9Mod0aXV-14" target="gtxU_MYMPbrc9Mod0aXV-14" edge="1">
          <mxGeometry width="50" height="50" relative="1" as="geometry">
            <mxPoint x="50" y="90" as="sourcePoint" />
            <mxPoint x="100" y="40" as="targetPoint" />
          </mxGeometry>
        </mxCell>
        <mxCell id="gtxU_MYMPbrc9Mod0aXV-16" value="&lt;u&gt;PortugueseCheeseBurger&lt;/u&gt;" style="text;html=1;align=center;verticalAlign=middle;whiteSpace=wrap;rounded=0;backgroundOutline=1;" parent="gtxU_MYMPbrc9Mod0aXV-28" vertex="1">
          <mxGeometry x="5" width="140" height="20" as="geometry" />
        </mxCell>
        <mxCell id="gtxU_MYMPbrc9Mod0aXV-29" value="" style="group;backgroundOutline=1;" parent="1" vertex="1" connectable="0">
          <mxGeometry x="270" y="230" width="140" height="80" as="geometry" />
        </mxCell>
        <mxCell id="gtxU_MYMPbrc9Mod0aXV-1" value="" style="rounded=0;whiteSpace=wrap;html=1;backgroundOutline=1;" parent="gtxU_MYMPbrc9Mod0aXV-29" vertex="1">
          <mxGeometry width="140" height="80" as="geometry" />
        </mxCell>
        <mxCell id="gtxU_MYMPbrc9Mod0aXV-2" value="" style="endArrow=none;html=1;rounded=0;exitX=0;exitY=0.25;exitDx=0;exitDy=0;entryX=1;entryY=0.25;entryDx=0;entryDy=0;backgroundOutline=1;" parent="gtxU_MYMPbrc9Mod0aXV-29" source="gtxU_MYMPbrc9Mod0aXV-1" target="gtxU_MYMPbrc9Mod0aXV-1" edge="1">
          <mxGeometry width="50" height="50" relative="1" as="geometry">
            <mxPoint x="50" y="90" as="sourcePoint" />
            <mxPoint x="100" y="40" as="targetPoint" />
          </mxGeometry>
        </mxCell>
        <mxCell id="gtxU_MYMPbrc9Mod0aXV-3" value="&lt;u&gt;Hamburger (abstract)&lt;/u&gt;" style="text;html=1;align=center;verticalAlign=middle;whiteSpace=wrap;rounded=0;backgroundOutline=1;" parent="gtxU_MYMPbrc9Mod0aXV-29" vertex="1">
          <mxGeometry x="10" width="120" height="20" as="geometry" />
        </mxCell>
        <mxCell id="gtxU_MYMPbrc9Mod0aXV-4" value="getName()&lt;div&gt;getComposition()&lt;/div&gt;&lt;div&gt;getCalories()&lt;/div&gt;" style="text;html=1;align=left;verticalAlign=middle;whiteSpace=wrap;rounded=0;backgroundOutline=1;" parent="gtxU_MYMPbrc9Mod0aXV-29" vertex="1">
          <mxGeometry x="10" y="25" width="95" height="40" as="geometry" />
        </mxCell>
        <mxCell id="gtxU_MYMPbrc9Mod0aXV-30" value="" style="group;backgroundOutline=1;" parent="1" vertex="1" connectable="0">
          <mxGeometry x="350" y="420" width="140" height="80" as="geometry" />
        </mxCell>
        <mxCell id="gtxU_MYMPbrc9Mod0aXV-31" value="" style="rounded=0;whiteSpace=wrap;html=1;backgroundOutline=1;" parent="gtxU_MYMPbrc9Mod0aXV-30" vertex="1">
          <mxGeometry width="140" height="70" as="geometry" />
        </mxCell>
        <mxCell id="gtxU_MYMPbrc9Mod0aXV-32" value="" style="endArrow=none;html=1;rounded=0;exitX=0;exitY=0.25;exitDx=0;exitDy=0;entryX=1;entryY=0.25;entryDx=0;entryDy=0;backgroundOutline=1;" parent="gtxU_MYMPbrc9Mod0aXV-30" source="gtxU_MYMPbrc9Mod0aXV-31" target="gtxU_MYMPbrc9Mod0aXV-31" edge="1">
          <mxGeometry width="50" height="50" relative="1" as="geometry">
            <mxPoint x="50" y="90" as="sourcePoint" />
            <mxPoint x="100" y="40" as="targetPoint" />
          </mxGeometry>
        </mxCell>
        <mxCell id="gtxU_MYMPbrc9Mod0aXV-107" style="edgeStyle=orthogonalEdgeStyle;rounded=0;orthogonalLoop=1;jettySize=auto;html=1;exitX=0;exitY=0;exitDx=0;exitDy=0;endArrow=block;endFill=0;backgroundOutline=1;" parent="gtxU_MYMPbrc9Mod0aXV-30" source="gtxU_MYMPbrc9Mod0aXV-33" edge="1">
          <mxGeometry relative="1" as="geometry">
            <mxPoint x="10" y="-110" as="targetPoint" />
          </mxGeometry>
        </mxCell>
        <mxCell id="gtxU_MYMPbrc9Mod0aXV-132" value="standard" style="edgeLabel;html=1;align=center;verticalAlign=middle;resizable=0;points=[];backgroundOutline=1;" parent="gtxU_MYMPbrc9Mod0aXV-107" vertex="1" connectable="0">
          <mxGeometry x="0.1983" relative="1" as="geometry">
            <mxPoint x="10" as="offset" />
          </mxGeometry>
        </mxCell>
        <mxCell id="gtxU_MYMPbrc9Mod0aXV-33" value="&lt;u&gt;CheeseBurger&lt;/u&gt;" style="text;html=1;align=center;verticalAlign=middle;whiteSpace=wrap;rounded=0;backgroundOutline=1;" parent="gtxU_MYMPbrc9Mod0aXV-30" vertex="1">
          <mxGeometry x="10" width="120" height="20" as="geometry" />
        </mxCell>
        <mxCell id="gtxU_MYMPbrc9Mod0aXV-35" value="" style="group;backgroundOutline=1;" parent="1" vertex="1" connectable="0">
          <mxGeometry x="500" y="420" width="140" height="70" as="geometry" />
        </mxCell>
        <mxCell id="gtxU_MYMPbrc9Mod0aXV-36" value="" style="rounded=0;whiteSpace=wrap;html=1;backgroundOutline=1;" parent="gtxU_MYMPbrc9Mod0aXV-35" vertex="1">
          <mxGeometry width="140" height="70" as="geometry" />
        </mxCell>
        <mxCell id="gtxU_MYMPbrc9Mod0aXV-37" value="" style="endArrow=none;html=1;rounded=0;exitX=0;exitY=0.25;exitDx=0;exitDy=0;entryX=1;entryY=0.25;entryDx=0;entryDy=0;backgroundOutline=1;" parent="gtxU_MYMPbrc9Mod0aXV-35" source="gtxU_MYMPbrc9Mod0aXV-36" target="gtxU_MYMPbrc9Mod0aXV-36" edge="1">
          <mxGeometry width="50" height="50" relative="1" as="geometry">
            <mxPoint x="50" y="78.75" as="sourcePoint" />
            <mxPoint x="100" y="35" as="targetPoint" />
          </mxGeometry>
        </mxCell>
        <mxCell id="gtxU_MYMPbrc9Mod0aXV-38" value="&lt;u&gt;GreekBurger&lt;/u&gt;" style="text;html=1;align=center;verticalAlign=middle;whiteSpace=wrap;rounded=0;backgroundOutline=1;" parent="gtxU_MYMPbrc9Mod0aXV-35" vertex="1">
          <mxGeometry x="10" width="120" height="17.5" as="geometry" />
        </mxCell>
        <mxCell id="gtxU_MYMPbrc9Mod0aXV-40" value="" style="group;backgroundOutline=1;" parent="1" vertex="1" connectable="0">
          <mxGeometry x="650" y="420" width="140" height="70" as="geometry" />
        </mxCell>
        <mxCell id="gtxU_MYMPbrc9Mod0aXV-41" value="" style="rounded=0;whiteSpace=wrap;html=1;backgroundOutline=1;" parent="gtxU_MYMPbrc9Mod0aXV-40" vertex="1">
          <mxGeometry width="140" height="70" as="geometry" />
        </mxCell>
        <mxCell id="gtxU_MYMPbrc9Mod0aXV-42" value="" style="endArrow=none;html=1;rounded=0;exitX=0;exitY=0.25;exitDx=0;exitDy=0;entryX=1;entryY=0.25;entryDx=0;entryDy=0;backgroundOutline=1;" parent="gtxU_MYMPbrc9Mod0aXV-40" source="gtxU_MYMPbrc9Mod0aXV-41" target="gtxU_MYMPbrc9Mod0aXV-41" edge="1">
          <mxGeometry width="50" height="50" relative="1" as="geometry">
            <mxPoint x="50" y="78.75" as="sourcePoint" />
            <mxPoint x="100" y="35" as="targetPoint" />
          </mxGeometry>
        </mxCell>
        <mxCell id="gtxU_MYMPbrc9Mod0aXV-43" value="&lt;u&gt;MeatLoverBurger&lt;/u&gt;" style="text;html=1;align=center;verticalAlign=middle;whiteSpace=wrap;rounded=0;backgroundOutline=1;" parent="gtxU_MYMPbrc9Mod0aXV-40" vertex="1">
          <mxGeometry x="10" width="120" height="17.5" as="geometry" />
        </mxCell>
        <mxCell id="gtxU_MYMPbrc9Mod0aXV-99" style="edgeStyle=orthogonalEdgeStyle;rounded=0;orthogonalLoop=1;jettySize=auto;html=1;exitX=0.5;exitY=1;exitDx=0;exitDy=0;backgroundOutline=1;" parent="gtxU_MYMPbrc9Mod0aXV-40" source="gtxU_MYMPbrc9Mod0aXV-41" target="gtxU_MYMPbrc9Mod0aXV-41" edge="1">
          <mxGeometry relative="1" as="geometry" />
        </mxCell>
        <mxCell id="gtxU_MYMPbrc9Mod0aXV-45" value="" style="group;backgroundOutline=1;" parent="1" vertex="1" connectable="0">
          <mxGeometry x="800" y="420" width="140" height="80" as="geometry" />
        </mxCell>
        <mxCell id="gtxU_MYMPbrc9Mod0aXV-46" value="" style="rounded=0;whiteSpace=wrap;html=1;backgroundOutline=1;" parent="gtxU_MYMPbrc9Mod0aXV-45" vertex="1">
          <mxGeometry width="140" height="70" as="geometry" />
        </mxCell>
        <mxCell id="gtxU_MYMPbrc9Mod0aXV-47" value="" style="endArrow=none;html=1;rounded=0;exitX=0;exitY=0.25;exitDx=0;exitDy=0;entryX=1;entryY=0.25;entryDx=0;entryDy=0;backgroundOutline=1;" parent="gtxU_MYMPbrc9Mod0aXV-45" source="gtxU_MYMPbrc9Mod0aXV-46" target="gtxU_MYMPbrc9Mod0aXV-46" edge="1">
          <mxGeometry width="50" height="50" relative="1" as="geometry">
            <mxPoint x="50" y="90" as="sourcePoint" />
            <mxPoint x="100" y="40" as="targetPoint" />
          </mxGeometry>
        </mxCell>
        <mxCell id="gtxU_MYMPbrc9Mod0aXV-48" value="&lt;u&gt;SmallBunBurger&lt;/u&gt;" style="text;html=1;align=center;verticalAlign=middle;whiteSpace=wrap;rounded=0;backgroundOutline=1;" parent="gtxU_MYMPbrc9Mod0aXV-45" vertex="1">
          <mxGeometry x="10" width="120" height="20" as="geometry" />
        </mxCell>
        <mxCell id="gtxU_MYMPbrc9Mod0aXV-50" value="" style="group;backgroundOutline=1;" parent="1" vertex="1" connectable="0">
          <mxGeometry x="950" y="420" width="140" height="70" as="geometry" />
        </mxCell>
        <mxCell id="gtxU_MYMPbrc9Mod0aXV-51" value="" style="rounded=0;whiteSpace=wrap;html=1;backgroundOutline=1;" parent="gtxU_MYMPbrc9Mod0aXV-50" vertex="1">
          <mxGeometry width="140" height="70" as="geometry" />
        </mxCell>
        <mxCell id="gtxU_MYMPbrc9Mod0aXV-52" value="" style="endArrow=none;html=1;rounded=0;exitX=0;exitY=0.25;exitDx=0;exitDy=0;entryX=1;entryY=0.25;entryDx=0;entryDy=0;backgroundOutline=1;" parent="gtxU_MYMPbrc9Mod0aXV-50" source="gtxU_MYMPbrc9Mod0aXV-51" target="gtxU_MYMPbrc9Mod0aXV-51" edge="1">
          <mxGeometry width="50" height="50" relative="1" as="geometry">
            <mxPoint x="50" y="78.75" as="sourcePoint" />
            <mxPoint x="100" y="35" as="targetPoint" />
          </mxGeometry>
        </mxCell>
        <mxCell id="gtxU_MYMPbrc9Mod0aXV-53" value="&lt;u&gt;VeggieBurger&lt;/u&gt;" style="text;html=1;align=center;verticalAlign=middle;whiteSpace=wrap;rounded=0;backgroundOutline=1;" parent="gtxU_MYMPbrc9Mod0aXV-50" vertex="1">
          <mxGeometry x="10" width="120" height="17.5" as="geometry" />
        </mxCell>
        <mxCell id="gtxU_MYMPbrc9Mod0aXV-66" value="" style="line;strokeWidth=1;fillColor=none;align=left;verticalAlign=middle;spacingTop=-1;spacingLeft=3;spacingRight=3;rotatable=0;labelPosition=right;points=[];portConstraint=eastwest;strokeColor=inherit;backgroundOutline=1;" parent="1" vertex="1">
          <mxGeometry x="360" y="390" width="660" height="8" as="geometry" />
        </mxCell>
        <mxCell id="gtxU_MYMPbrc9Mod0aXV-73" value="" style="line;strokeWidth=1;fillColor=none;align=left;verticalAlign=middle;spacingTop=-1;spacingLeft=3;spacingRight=3;rotatable=0;labelPosition=right;points=[];portConstraint=eastwest;strokeColor=inherit;backgroundOutline=1;" parent="1" vertex="1">
          <mxGeometry x="340" y="540" width="360" height="8" as="geometry" />
        </mxCell>
        <mxCell id="gtxU_MYMPbrc9Mod0aXV-78" value="" style="group;backgroundOutline=1;" parent="1" vertex="1" connectable="0">
          <mxGeometry x="270" y="710" width="150" height="80" as="geometry" />
        </mxCell>
        <mxCell id="gtxU_MYMPbrc9Mod0aXV-79" value="" style="rounded=0;whiteSpace=wrap;html=1;backgroundOutline=1;" parent="gtxU_MYMPbrc9Mod0aXV-78" vertex="1">
          <mxGeometry width="150" height="70" as="geometry" />
        </mxCell>
        <mxCell id="gtxU_MYMPbrc9Mod0aXV-80" value="" style="endArrow=none;html=1;rounded=0;exitX=0;exitY=0.25;exitDx=0;exitDy=0;entryX=1;entryY=0.25;entryDx=0;entryDy=0;backgroundOutline=1;" parent="gtxU_MYMPbrc9Mod0aXV-78" source="gtxU_MYMPbrc9Mod0aXV-79" target="gtxU_MYMPbrc9Mod0aXV-79" edge="1">
          <mxGeometry width="50" height="50" relative="1" as="geometry">
            <mxPoint x="50" y="90" as="sourcePoint" />
            <mxPoint x="100" y="40" as="targetPoint" />
          </mxGeometry>
        </mxCell>
        <mxCell id="gtxU_MYMPbrc9Mod0aXV-81" value="&lt;u&gt;UgandanCheeseBurger&lt;/u&gt;" style="text;html=1;align=center;verticalAlign=middle;whiteSpace=wrap;rounded=0;backgroundOutline=1;" parent="gtxU_MYMPbrc9Mod0aXV-78" vertex="1">
          <mxGeometry x="5" width="140" height="20" as="geometry" />
        </mxCell>
        <mxCell id="gtxU_MYMPbrc9Mod0aXV-83" value="" style="group;backgroundOutline=1;" parent="1" vertex="1" connectable="0">
          <mxGeometry x="430" y="710" width="150" height="80" as="geometry" />
        </mxCell>
        <mxCell id="gtxU_MYMPbrc9Mod0aXV-84" value="" style="rounded=0;whiteSpace=wrap;html=1;backgroundOutline=1;" parent="gtxU_MYMPbrc9Mod0aXV-83" vertex="1">
          <mxGeometry width="150" height="70" as="geometry" />
        </mxCell>
        <mxCell id="gtxU_MYMPbrc9Mod0aXV-85" value="" style="endArrow=none;html=1;rounded=0;exitX=0;exitY=0.25;exitDx=0;exitDy=0;entryX=1;entryY=0.25;entryDx=0;entryDy=0;backgroundOutline=1;" parent="gtxU_MYMPbrc9Mod0aXV-83" source="gtxU_MYMPbrc9Mod0aXV-84" target="gtxU_MYMPbrc9Mod0aXV-84" edge="1">
          <mxGeometry width="50" height="50" relative="1" as="geometry">
            <mxPoint x="50" y="90" as="sourcePoint" />
            <mxPoint x="100" y="40" as="targetPoint" />
          </mxGeometry>
        </mxCell>
        <mxCell id="gtxU_MYMPbrc9Mod0aXV-86" value="&lt;u&gt;UgandanGreekBurger&lt;/u&gt;" style="text;html=1;align=center;verticalAlign=middle;whiteSpace=wrap;rounded=0;backgroundOutline=1;" parent="gtxU_MYMPbrc9Mod0aXV-83" vertex="1">
          <mxGeometry x="5" width="140" height="20" as="geometry" />
        </mxCell>
        <mxCell id="gtxU_MYMPbrc9Mod0aXV-88" value="" style="group;backgroundOutline=1;" parent="1" vertex="1" connectable="0">
          <mxGeometry x="590" y="710" width="150" height="80" as="geometry" />
        </mxCell>
        <mxCell id="gtxU_MYMPbrc9Mod0aXV-89" value="" style="rounded=0;whiteSpace=wrap;html=1;backgroundOutline=1;" parent="gtxU_MYMPbrc9Mod0aXV-88" vertex="1">
          <mxGeometry width="150" height="70" as="geometry" />
        </mxCell>
        <mxCell id="gtxU_MYMPbrc9Mod0aXV-90" value="" style="endArrow=none;html=1;rounded=0;exitX=0;exitY=0.25;exitDx=0;exitDy=0;entryX=1;entryY=0.25;entryDx=0;entryDy=0;backgroundOutline=1;" parent="gtxU_MYMPbrc9Mod0aXV-88" source="gtxU_MYMPbrc9Mod0aXV-89" target="gtxU_MYMPbrc9Mod0aXV-89" edge="1">
          <mxGeometry width="50" height="50" relative="1" as="geometry">
            <mxPoint x="50" y="90" as="sourcePoint" />
            <mxPoint x="100" y="40" as="targetPoint" />
          </mxGeometry>
        </mxCell>
        <mxCell id="gtxU_MYMPbrc9Mod0aXV-91" value="&lt;u&gt;UgandanVeggieBurger&lt;/u&gt;" style="text;html=1;align=center;verticalAlign=middle;whiteSpace=wrap;rounded=0;backgroundOutline=1;" parent="gtxU_MYMPbrc9Mod0aXV-88" vertex="1">
          <mxGeometry x="5" width="140" height="20" as="geometry" />
        </mxCell>
        <mxCell id="gtxU_MYMPbrc9Mod0aXV-95" value="" style="line;strokeWidth=1;fillColor=none;align=left;verticalAlign=middle;spacingTop=-1;spacingLeft=3;spacingRight=3;rotatable=0;labelPosition=right;points=[];portConstraint=eastwest;strokeColor=inherit;backgroundOutline=1;" parent="1" vertex="1">
          <mxGeometry x="280" y="680" width="380" height="8" as="geometry" />
        </mxCell>
        <mxCell id="gtxU_MYMPbrc9Mod0aXV-102" value="&lt;u&gt;SimpleHamburgerFactory&lt;/u&gt;" style="swimlane;fontStyle=0;childLayout=stackLayout;horizontal=1;startSize=26;horizontalStack=0;resizeParent=1;resizeParentMax=0;resizeLast=0;collapsible=1;marginBottom=0;whiteSpace=wrap;html=1;backgroundOutline=1;fillColor=default;" parent="1" vertex="1">
          <mxGeometry x="480" y="220" width="150" height="90" as="geometry">
            <mxRectangle x="480" y="220" width="180" height="30" as="alternateBounds" />
          </mxGeometry>
        </mxCell>
        <mxCell id="gtxU_MYMPbrc9Mod0aXV-103" value="createHamburger(type)" style="text;align=left;verticalAlign=top;spacingLeft=4;spacingRight=4;overflow=hidden;rotatable=0;points=[[0,0.5],[1,0.5]];portConstraint=eastwest;whiteSpace=wrap;html=1;backgroundOutline=1;fillColor=default;" parent="gtxU_MYMPbrc9Mod0aXV-102" vertex="1">
          <mxGeometry y="26" width="150" height="64" as="geometry" />
        </mxCell>
        <mxCell id="gtxU_MYMPbrc9Mod0aXV-108" value="" style="endArrow=none;html=1;rounded=0;entryX=1;entryY=0.5;entryDx=0;entryDy=0;entryPerimeter=0;exitX=0.5;exitY=0;exitDx=0;exitDy=0;backgroundOutline=1;" parent="1" source="gtxU_MYMPbrc9Mod0aXV-53" target="gtxU_MYMPbrc9Mod0aXV-66" edge="1">
          <mxGeometry width="50" height="50" relative="1" as="geometry">
            <mxPoint x="820" y="460" as="sourcePoint" />
            <mxPoint x="870" y="410" as="targetPoint" />
          </mxGeometry>
        </mxCell>
        <mxCell id="gtxU_MYMPbrc9Mod0aXV-110" value="" style="endArrow=none;html=1;rounded=0;exitX=0.5;exitY=0;exitDx=0;exitDy=0;entryX=0.772;entryY=0.508;entryDx=0;entryDy=0;entryPerimeter=0;backgroundOutline=1;" parent="1" source="gtxU_MYMPbrc9Mod0aXV-48" target="gtxU_MYMPbrc9Mod0aXV-66" edge="1">
          <mxGeometry width="50" height="50" relative="1" as="geometry">
            <mxPoint x="810" y="420" as="sourcePoint" />
            <mxPoint x="871" y="394" as="targetPoint" />
          </mxGeometry>
        </mxCell>
        <mxCell id="gtxU_MYMPbrc9Mod0aXV-111" value="" style="endArrow=none;html=1;rounded=0;exitX=0.5;exitY=0;exitDx=0;exitDy=0;entryX=0.545;entryY=0.509;entryDx=0;entryDy=0;entryPerimeter=0;backgroundOutline=1;" parent="1" source="gtxU_MYMPbrc9Mod0aXV-43" target="gtxU_MYMPbrc9Mod0aXV-66" edge="1">
          <mxGeometry width="50" height="50" relative="1" as="geometry">
            <mxPoint x="700" y="410" as="sourcePoint" />
            <mxPoint x="750" y="360" as="targetPoint" />
          </mxGeometry>
        </mxCell>
        <mxCell id="gtxU_MYMPbrc9Mod0aXV-112" value="" style="endArrow=none;html=1;rounded=0;exitX=0.5;exitY=0;exitDx=0;exitDy=0;entryX=0.318;entryY=0.491;entryDx=0;entryDy=0;entryPerimeter=0;backgroundOutline=1;" parent="1" source="gtxU_MYMPbrc9Mod0aXV-38" target="gtxU_MYMPbrc9Mod0aXV-66" edge="1">
          <mxGeometry width="50" height="50" relative="1" as="geometry">
            <mxPoint x="550" y="410" as="sourcePoint" />
            <mxPoint x="600" y="360" as="targetPoint" />
          </mxGeometry>
        </mxCell>
        <mxCell id="gtxU_MYMPbrc9Mod0aXV-113" value="" style="endArrow=block;endFill=0;html=1;rounded=0;exitX=0.25;exitY=0;exitDx=0;exitDy=0;entryX=0.5;entryY=1;entryDx=0;entryDy=0;backgroundOutline=1;" parent="1" source="gtxU_MYMPbrc9Mod0aXV-16" target="gtxU_MYMPbrc9Mod0aXV-1" edge="1">
          <mxGeometry width="160" relative="1" as="geometry">
            <mxPoint x="420" y="280" as="sourcePoint" />
            <mxPoint x="580" y="280" as="targetPoint" />
          </mxGeometry>
        </mxCell>
        <mxCell id="gtxU_MYMPbrc9Mod0aXV-133" value="portuguese" style="edgeLabel;html=1;align=center;verticalAlign=middle;resizable=0;points=[];backgroundOutline=1;" parent="gtxU_MYMPbrc9Mod0aXV-113" vertex="1" connectable="0">
          <mxGeometry x="-0.5977" y="-1" relative="1" as="geometry">
            <mxPoint as="offset" />
          </mxGeometry>
        </mxCell>
        <mxCell id="gtxU_MYMPbrc9Mod0aXV-114" value="" style="endArrow=none;html=1;rounded=0;exitX=0.464;exitY=-0.001;exitDx=0;exitDy=0;entryX=0.999;entryY=0.554;entryDx=0;entryDy=0;entryPerimeter=0;exitPerimeter=0;backgroundOutline=1;" parent="1" source="gtxU_MYMPbrc9Mod0aXV-24" target="gtxU_MYMPbrc9Mod0aXV-73" edge="1">
          <mxGeometry width="50" height="50" relative="1" as="geometry">
            <mxPoint x="500" y="540" as="sourcePoint" />
            <mxPoint x="700" y="550" as="targetPoint" />
          </mxGeometry>
        </mxCell>
        <mxCell id="gtxU_MYMPbrc9Mod0aXV-115" value="" style="endArrow=none;html=1;rounded=0;exitX=0.5;exitY=0;exitDx=0;exitDy=0;entryX=0.555;entryY=0.494;entryDx=0;entryDy=0;entryPerimeter=0;backgroundOutline=1;" parent="1" source="gtxU_MYMPbrc9Mod0aXV-20" target="gtxU_MYMPbrc9Mod0aXV-73" edge="1">
          <mxGeometry width="50" height="50" relative="1" as="geometry">
            <mxPoint x="500" y="560" as="sourcePoint" />
            <mxPoint x="550" y="510" as="targetPoint" />
          </mxGeometry>
        </mxCell>
        <mxCell id="gtxU_MYMPbrc9Mod0aXV-116" value="" style="endArrow=block;html=1;rounded=0;exitX=0.035;exitY=0.048;exitDx=0;exitDy=0;entryX=0.074;entryY=0.991;entryDx=0;entryDy=0;entryPerimeter=0;exitPerimeter=0;endFill=0;backgroundOutline=1;" parent="1" source="gtxU_MYMPbrc9Mod0aXV-81" target="gtxU_MYMPbrc9Mod0aXV-1" edge="1">
          <mxGeometry width="50" height="50" relative="1" as="geometry">
            <mxPoint x="430" y="450" as="sourcePoint" />
            <mxPoint x="480" y="400" as="targetPoint" />
          </mxGeometry>
        </mxCell>
        <mxCell id="gtxU_MYMPbrc9Mod0aXV-134" value="ugandan" style="edgeLabel;html=1;align=center;verticalAlign=middle;resizable=0;points=[];backgroundOutline=1;" parent="gtxU_MYMPbrc9Mod0aXV-116" vertex="1" connectable="0">
          <mxGeometry x="-0.7305" relative="1" as="geometry">
            <mxPoint y="3" as="offset" />
          </mxGeometry>
        </mxCell>
        <mxCell id="gtxU_MYMPbrc9Mod0aXV-117" value="" style="endArrow=none;html=1;rounded=0;exitX=0.463;exitY=-0.014;exitDx=0;exitDy=0;entryX=0.999;entryY=0.515;entryDx=0;entryDy=0;entryPerimeter=0;exitPerimeter=0;backgroundOutline=1;" parent="1" source="gtxU_MYMPbrc9Mod0aXV-91" target="gtxU_MYMPbrc9Mod0aXV-95" edge="1">
          <mxGeometry width="50" height="50" relative="1" as="geometry">
            <mxPoint x="480" y="690" as="sourcePoint" />
            <mxPoint x="665" y="684" as="targetPoint" />
          </mxGeometry>
        </mxCell>
        <mxCell id="gtxU_MYMPbrc9Mod0aXV-118" value="" style="endArrow=none;html=1;rounded=0;exitX=0.5;exitY=0;exitDx=0;exitDy=0;entryX=0.593;entryY=0.515;entryDx=0;entryDy=0;entryPerimeter=0;backgroundOutline=1;" parent="1" source="gtxU_MYMPbrc9Mod0aXV-86" target="gtxU_MYMPbrc9Mod0aXV-95" edge="1">
          <mxGeometry width="50" height="50" relative="1" as="geometry">
            <mxPoint x="480" y="740" as="sourcePoint" />
            <mxPoint x="530" y="690" as="targetPoint" />
          </mxGeometry>
        </mxCell>
        <mxCell id="gtxU_MYMPbrc9Mod0aXV-120" value="" style="endArrow=open;endFill=1;endSize=12;html=1;rounded=0;exitX=-0.001;exitY=0.53;exitDx=0;exitDy=0;entryX=0.991;entryY=0.62;entryDx=0;entryDy=0;entryPerimeter=0;exitPerimeter=0;backgroundOutline=1;" parent="1" source="gtxU_MYMPbrc9Mod0aXV-103" target="gtxU_MYMPbrc9Mod0aXV-1" edge="1">
          <mxGeometry width="160" relative="1" as="geometry">
            <mxPoint x="370" y="380" as="sourcePoint" />
            <mxPoint x="410" y="277" as="targetPoint" />
          </mxGeometry>
        </mxCell>
        <mxCell id="gtxU_MYMPbrc9Mod0aXV-121" value="&lt;u&gt;PortugueseHamburgerStore&lt;/u&gt;" style="swimlane;fontStyle=0;childLayout=stackLayout;horizontal=1;startSize=26;horizontalStack=0;resizeParent=1;resizeParentMax=0;resizeLast=0;collapsible=1;marginBottom=0;whiteSpace=wrap;html=1;backgroundOutline=1;fillColor=#FFFFFF;" parent="1" vertex="1">
          <mxGeometry x="30" y="170" width="180" height="90" as="geometry">
            <mxRectangle x="480" y="220" width="180" height="30" as="alternateBounds" />
          </mxGeometry>
        </mxCell>
        <mxCell id="gtxU_MYMPbrc9Mod0aXV-122" value="createHamburger(type)" style="text;align=left;verticalAlign=top;spacingLeft=4;spacingRight=4;overflow=hidden;rotatable=0;points=[[0,0.5],[1,0.5]];portConstraint=eastwest;whiteSpace=wrap;html=1;backgroundOutline=1;fillColor=#FFFFFF;" parent="gtxU_MYMPbrc9Mod0aXV-121" vertex="1">
          <mxGeometry y="26" width="180" height="64" as="geometry" />
        </mxCell>
        <mxCell id="gtxU_MYMPbrc9Mod0aXV-123" value="&lt;u&gt;UgandanHamburgerStore&lt;/u&gt;" style="swimlane;fontStyle=0;childLayout=stackLayout;horizontal=1;startSize=26;horizontalStack=0;resizeParent=1;resizeParentMax=0;resizeLast=0;collapsible=1;marginBottom=0;whiteSpace=wrap;html=1;backgroundOutline=1;fillColor=#FFFFFF;" parent="1" vertex="1">
          <mxGeometry x="30" y="280" width="180" height="90" as="geometry">
            <mxRectangle x="480" y="220" width="180" height="30" as="alternateBounds" />
          </mxGeometry>
        </mxCell>
        <mxCell id="gtxU_MYMPbrc9Mod0aXV-124" value="createHamburger(type)" style="text;align=left;verticalAlign=top;spacingLeft=4;spacingRight=4;overflow=hidden;rotatable=0;points=[[0,0.5],[1,0.5]];portConstraint=eastwest;whiteSpace=wrap;html=1;backgroundOutline=1;fillColor=#FFFFFF;" parent="gtxU_MYMPbrc9Mod0aXV-123" vertex="1">
          <mxGeometry y="26" width="180" height="64" as="geometry" />
        </mxCell>
        <mxCell id="gtxU_MYMPbrc9Mod0aXV-125" value="&lt;u&gt;HamburgerStore (abstract)&lt;/u&gt;" style="swimlane;fontStyle=0;childLayout=stackLayout;horizontal=1;startSize=26;horizontalStack=0;resizeParent=1;resizeParentMax=0;resizeLast=0;collapsible=1;marginBottom=0;whiteSpace=wrap;html=1;backgroundOutline=1;fillColor=#FFFFFF;" parent="1" vertex="1">
          <mxGeometry x="-220" y="230" width="180" height="90" as="geometry">
            <mxRectangle x="480" y="220" width="180" height="30" as="alternateBounds" />
          </mxGeometry>
        </mxCell>
        <mxCell id="gtxU_MYMPbrc9Mod0aXV-126" value="takeHamburgerOrder(type)" style="text;align=left;verticalAlign=top;spacingLeft=4;spacingRight=4;overflow=hidden;rotatable=0;points=[[0,0.5],[1,0.5]];portConstraint=eastwest;whiteSpace=wrap;html=1;backgroundOutline=1;fillColor=#FFFFFF;" parent="gtxU_MYMPbrc9Mod0aXV-125" vertex="1">
          <mxGeometry y="26" width="180" height="64" as="geometry" />
        </mxCell>
        <mxCell id="gtxU_MYMPbrc9Mod0aXV-127" value="" style="endArrow=open;endFill=1;endSize=12;html=1;rounded=0;entryX=0;entryY=0.25;entryDx=0;entryDy=0;backgroundOutline=1;" parent="1" target="gtxU_MYMPbrc9Mod0aXV-1" edge="1">
          <mxGeometry width="160" relative="1" as="geometry">
            <mxPoint x="210" y="250" as="sourcePoint" />
            <mxPoint x="180" y="290" as="targetPoint" />
          </mxGeometry>
        </mxCell>
        <mxCell id="gtxU_MYMPbrc9Mod0aXV-128" value="" style="endArrow=open;endFill=1;endSize=12;html=1;rounded=0;exitX=0.995;exitY=0.116;exitDx=0;exitDy=0;entryX=0;entryY=0.75;entryDx=0;entryDy=0;exitPerimeter=0;backgroundOutline=1;" parent="1" source="gtxU_MYMPbrc9Mod0aXV-123" target="gtxU_MYMPbrc9Mod0aXV-1" edge="1">
          <mxGeometry width="160" relative="1" as="geometry">
            <mxPoint x="80" y="250" as="sourcePoint" />
            <mxPoint x="240" y="250" as="targetPoint" />
          </mxGeometry>
        </mxCell>
        <mxCell id="gtxU_MYMPbrc9Mod0aXV-129" value="" style="strokeWidth=1;html=1;shape=mxgraph.flowchart.annotation_2;align=left;labelPosition=right;pointerEvents=1;backgroundOutline=1;" parent="1" vertex="1">
          <mxGeometry x="-20" y="230" width="50" height="100" as="geometry" />
        </mxCell>
        <mxCell id="gtxU_MYMPbrc9Mod0aXV-135" value="" style="endArrow=block;endFill=0;endSize=12;html=1;rounded=0;exitX=0;exitY=0.5;exitDx=0;exitDy=0;exitPerimeter=0;entryX=0.996;entryY=0.372;entryDx=0;entryDy=0;entryPerimeter=0;backgroundOutline=1;" parent="1" source="gtxU_MYMPbrc9Mod0aXV-129" target="gtxU_MYMPbrc9Mod0aXV-126" edge="1">
          <mxGeometry width="160" relative="1" as="geometry">
            <mxPoint x="40" y="280" as="sourcePoint" />
            <mxPoint x="200" y="280" as="targetPoint" />
          </mxGeometry>
        </mxCell>
      </root>
    </mxGraphModel>
  </diagram>
</mxfile>
